# 3ds Max Wavefront OBJ Exporter v0.97b - (c)2007 guruware
# File Created: 07.05.2016 00:37:11

mtllib terrain.mtl

#
# object Layer0_001
#

v  566.7266 88.5000 -703.1591
v  566.7266 0.0000 -703.1591
v  566.7266 0.0000 -705.6591
v  566.7266 91.0000 -705.6591
v  566.7266 88.5000 602.8409
v  566.7266 91.0000 605.3409
v  566.7266 0.0000 602.8409
v  566.7266 0.0000 605.3409
v  -616.7734 0.0000 -593.6591
v  -616.7734 0.0000 -464.1591
v  566.7266 0.0000 -464.1591
v  566.7266 0.0000 -593.6591
v  1750.2266 0.0000 -464.1591
v  1750.2266 0.0000 -593.6591
v  -621.7734 0.0000 498.3409
v  -1261.7734 0.0000 864.3409
v  2395.2266 0.0000 864.3409
v  566.7266 0.0000 498.3409
v  1755.2266 0.0000 498.3409
v  1755.2266 0.0000 -598.6591
v  2395.2266 0.0000 -964.6591
v  566.7266 0.0000 -598.6591
v  -621.7734 0.0000 -598.6591
v  -1261.7734 0.0000 -964.6591
v  566.7266 0.0000 -459.1591
v  -70.7734 0.0000 -459.1591
v  -70.7734 0.0000 -52.6591
v  566.7266 0.0000 -52.6591
v  -616.7734 0.0000 363.8409
v  -616.7734 0.0000 493.3409
v  566.7266 0.0000 493.3409
v  566.7266 0.0000 363.8409
v  -616.7734 0.0000 -47.6591
v  -616.7734 0.0000 358.8409
v  -75.7734 0.0000 358.8409
v  -571.7734 0.0000 -47.6591
v  -571.7734 0.0000 -52.6591
v  -75.7734 0.0000 -459.1591
v  -616.7734 0.0000 -459.1591
v  -616.7734 0.0000 -52.6591
v  -70.7734 0.0000 -47.6591
v  -70.7734 0.0000 358.8409
v  566.7266 0.0000 358.8409
v  566.7266 0.0000 -47.6591
v  1204.2267 0.0000 358.8409
v  1204.2267 0.0000 -47.6591
v  1204.2267 0.0000 -52.6591
v  1204.2267 0.0000 -459.1591
v  1750.2266 0.0000 493.3409
v  1750.2266 0.0000 363.8409
v  1209.2267 0.0000 -459.1591
v  1209.2267 0.0000 358.8409
v  1750.2266 0.0000 358.8409
v  1705.2266 0.0000 -47.6591
v  1750.2266 0.0000 -47.6591
v  1705.2266 0.0000 -52.6591
v  1750.2266 0.0000 -459.1591
v  1750.2266 0.0000 -52.6591
# 58 vertices

vn 1.0000 0.0000 -0.0000
vn 0.0000 1.0000 -0.0000
# 2 vertex normals

vt 0.0000 0.0000 0.0000
vt -6.1677 5.9366 0.0000
vt -6.1677 4.6416 0.0000
vt 5.6673 4.6416 0.0000
vt 5.6673 5.9366 0.0000
vt 17.5023 4.6416 0.0000
vt 17.5023 5.9366 0.0000
vt -6.2177 -4.9834 0.0000
vt -12.6177 -8.6434 0.0000
vt 23.9523 -8.6434 0.0000
vt 5.6673 -4.9834 0.0000
vt 17.5523 -4.9834 0.0000
vt 17.5523 5.9866 0.0000
vt 23.9523 9.6466 0.0000
vt 5.6673 5.9866 0.0000
vt -6.2177 5.9866 0.0000
vt -12.6177 9.6466 0.0000
vt 5.6673 4.5916 0.0000
vt -0.7077 4.5916 0.0000
vt -0.7077 0.5266 0.0000
vt 5.6673 0.5266 0.0000
vt -6.1677 -3.6384 0.0000
vt -6.1677 -4.9334 0.0000
vt 5.6673 -4.9334 0.0000
vt 5.6673 -3.6384 0.0000
vt -6.1677 0.4766 0.0000
vt -6.1677 -3.5884 0.0000
vt -0.7577 -3.5884 0.0000
vt -5.7177 0.4766 0.0000
vt -5.7177 0.5266 0.0000
vt -0.7577 4.5916 0.0000
vt -6.1677 4.5916 0.0000
vt -6.1677 0.5266 0.0000
vt -0.7077 0.4766 0.0000
vt -0.7077 -3.5884 0.0000
vt 5.6673 -3.5884 0.0000
vt 5.6673 0.4766 0.0000
vt 12.0423 -3.5884 0.0000
vt 12.0423 0.4766 0.0000
vt 12.0423 0.5266 0.0000
vt 12.0423 4.5916 0.0000
vt 17.5023 -4.9334 0.0000
vt 17.5023 -3.6384 0.0000
vt 12.0923 4.5916 0.0000
vt 12.0923 -3.5884 0.0000
vt 17.5023 -3.5884 0.0000
vt 17.0523 0.4766 0.0000
vt 17.5023 0.4766 0.0000
vt 17.0523 0.5266 0.0000
vt 17.5023 4.5916 0.0000
vt 17.5023 0.5266 0.0000
vt -60.2841 8.8500 0.0000
vt -60.2841 -0.0000 0.0000
vt -49.8341 -0.0000 0.0000
vt 70.3159 8.8500 0.0000
vt -49.3341 -0.0000 0.0000
vt -36.3841 -0.0000 0.0000
vt -35.8841 -0.0000 0.0000
vt 4.7659 -0.0000 0.0000
vt 5.2659 -0.0000 0.0000
vt 45.9159 -0.0000 0.0000
vt 46.4159 -0.0000 0.0000
vt 59.3659 -0.0000 0.0000
vt 59.8659 -0.0000 0.0000
vt 70.3159 -0.0000 0.0000
# 65 texture coords

g Layer0_001
usemtl Material4
s off
f 1/1/1 2/1/1 3/1/1 4/1/1 
f 5/1/1 1/1/1 4/1/1 6/1/1 
f 7/1/1 5/1/1 6/1/1 8/1/1 
usemtl Material1
f 9/2/2 10/3/2 11/4/2 12/5/2 
f 12/5/2 11/4/2 13/6/2 14/7/2 
f 15/8/2 16/9/2 17/10/2 18/11/2 
f 19/12/2 18/11/2 17/10/2 20/13/2 
f 20/13/2 17/10/2 21/14/2 22/15/2 
f 23/16/2 22/15/2 21/14/2 24/17/2 
f 23/16/2 24/17/2 16/9/2 15/8/2 
f 25/18/2 26/19/2 27/20/2 28/21/2 
f 29/22/2 30/23/2 31/24/2 32/25/2 
f 33/26/2 34/27/2 35/28/2 36/29/2 
f 37/30/2 36/29/2 35/28/2 38/31/2 
f 37/30/2 38/31/2 39/32/2 40/33/2 
f 41/34/2 42/35/2 43/36/2 44/37/2 
f 44/37/2 43/36/2 45/38/2 46/39/2 
f 25/18/2 28/21/2 47/40/2 48/41/2 
f 32/25/2 31/24/2 49/42/2 50/43/2 
f 51/44/2 52/45/2 53/46/2 54/47/2 
f 54/47/2 53/46/2 55/48/2 
f 51/44/2 54/47/2 56/49/2 57/50/2 
f 57/50/2 56/49/2 58/51/2 
usemtl Material2
f 30/23/2 23/16/2 15/8/2 18/11/2 
f 30/23/2 18/11/2 31/24/2 
f 23/16/2 30/23/2 9/2/2 22/15/2 
f 22/15/2 9/2/2 12/5/2 
f 9/2/2 30/23/2 29/22/2 34/27/2 
f 34/27/2 29/22/2 32/25/2 35/28/2 
f 42/35/2 35/28/2 32/25/2 43/36/2 
f 38/31/2 35/28/2 42/35/2 26/19/2 
f 27/20/2 26/19/2 42/35/2 41/34/2 
f 27/20/2 41/34/2 44/37/2 28/21/2 
f 38/31/2 26/19/2 11/4/2 10/3/2 
f 39/32/2 38/31/2 10/3/2 9/2/2 
f 40/33/2 39/32/2 9/2/2 33/26/2 
f 9/2/2 34/27/2 33/26/2 
f 40/33/2 33/26/2 36/29/2 37/30/2 
f 11/4/2 26/19/2 25/18/2 
usemtl skp_front_default
f 31/1/2 18/1/2 19/1/2 49/1/2 
f 50/1/2 49/1/2 19/1/2 53/1/2 
f 55/1/2 53/1/2 19/1/2 58/1/2 
f 57/1/2 58/1/2 19/1/2 13/1/2 
f 14/1/2 13/1/2 19/1/2 20/1/2 
f 14/1/2 20/1/2 22/1/2 12/1/2 
f 51/1/2 57/1/2 13/1/2 48/1/2 
f 48/1/2 13/1/2 11/1/2 25/1/2 
f 52/1/2 51/1/2 48/1/2 47/1/2 
f 52/1/2 47/1/2 46/1/2 45/1/2 
f 50/1/2 52/1/2 45/1/2 43/1/2 
f 50/1/2 43/1/2 32/1/2 
f 52/1/2 50/1/2 53/1/2 
f 46/1/2 47/1/2 28/1/2 44/1/2 
f 55/1/2 58/1/2 56/1/2 54/1/2 
usemtl Material3
f 5/52/1 7/53/1 18/54/1 1/55/1 
f 1/55/1 18/54/1 31/56/1 32/57/1 
f 1/55/1 32/57/1 43/58/1 44/59/1 
f 1/55/1 44/59/1 28/60/1 25/61/1 
f 1/55/1 25/61/1 11/62/1 12/63/1 
f 1/55/1 12/63/1 22/64/1 2/65/1 
# 52 polygons - 8 triangles

